<?xml version="1.0" encoding="UTF-8" standalone="no"?>
<!-- Created with Inkscape (http://www.inkscape.org/) -->

<svg
   version="1.1"
   id="svg194"
   width="4523.52"
   height="3782.3999"
   viewBox="0 0 4523.52 3782.3999"
   sodipodi:docname="logo.svg"
   inkscape:version="1.2.2 (b0a8486541, 2022-12-01)"
   xmlns:inkscape="http://www.inkscape.org/namespaces/inkscape"
   xmlns:sodipodi="http://sodipodi.sourceforge.net/DTD/sodipodi-0.dtd"
   xmlns="http://www.w3.org/2000/svg"
   xmlns:svg="http://www.w3.org/2000/svg">
  <defs
     id="defs198" />
  <sodipodi:namedview
     id="namedview196"
     pagecolor="#ffffff"
     bordercolor="#000000"
     borderopacity="0.25"
     inkscape:showpageshadow="2"
     inkscape:pageopacity="0.0"
     inkscape:pagecheckerboard="0"
     inkscape:deskcolor="#d1d1d1"
     showgrid="false"
     inkscape:zoom="0.27152073"
     inkscape:cx="2241.0811"
     inkscape:cy="1894.8829"
     inkscape:window-width="1687"
     inkscape:window-height="1371"
     inkscape:window-x="1753"
     inkscape:window-y="32"
     inkscape:window-maximized="0"
     inkscape:current-layer="g200" />
  <g
     inkscape:groupmode="layer"
     inkscape:label="Image"
     id="g200">
    <path
       style="fill:#000000;stroke-width:3.84"
       d="M 1371.9164,3731.8285 C 1057.21,3712.346 729.82721,3597.2529 543.92391,3440.7435 c -150.3705,-126.595 -257.4624,-310.869 -306.1361,-526.7716 -26.148,-115.985 -32.9792,-202.2957 -30.2401,-382.08 2.0245,-132.8749 7.961,-214.9971 22.0686,-305.28 7.9132,-50.6417 30.8261,-158.514 33.1714,-156.1687 0.759,0.759 -2.0478,28.8635 -6.2375,62.4544 -29.0723,233.0866 -16.6138,530.4494 30.3915,725.3943 59.6543,247.404 189.2862,441.4848 374.5747,560.8016 89.3299,57.5241 242.5833,121.4992 370.55999,154.6892 147.0331,38.132 278.8878,54.8206 432.1521,54.6965 125.6821,-0.1018 219.0451,-9.9766 332.0079,-35.116 143.8007,-32.0024 220.0569,-62.0804 529.92,-209.0186 229.4367,-108.7997 315.0879,-146.3487 451.2,-197.8033 177.7737,-67.2039 339.6186,-104.5306 518.4,-119.5597 72.8938,-6.1278 303.2403,-6.0432 397.44,0.1459 193.22,12.695 439.218,47.2353 633.6,88.9631 66.7818,14.336 165.6484,38.9529 163.8132,40.7881 -0.9957,0.9958 -30.0533,-2.5278 -64.5719,-7.8301 -276.9546,-42.5425 -500.7709,-60.1562 -764.7894,-60.1868 -321.6779,-0.037 -493.7446,23.1296 -713.0119,95.9991 -150.9004,50.149 -233.6938,85.9303 -520.32,224.8694 -327.2745,158.6429 -402.7005,191.6155 -512.64,224.1016 -157.4789,46.5335 -367.1029,68.9081 -543.36,57.9966 z M 889.99641,3303.529 c -94.878,-20.3452 -205.3804,-89.5187 -280.2259,-175.419 -54.8407,-62.9408 -86.433,-109.9691 -122.6505,-182.5778 -50.9971,-102.2386 -83.0523,-203.069 -104.3243,-328.1547 -9.1336,-53.7083 -14.1554,-201.1114 -8.4069,-246.7656 l 3.3845,-26.88 18.2538,57.6 c 76.8801,242.597 119.0824,355.1433 183.4758,489.2995 84.6538,176.3662 185.499,303.8664 311.8075,394.2229 36.8465,26.3587 36.8119,26.8503 -1.314,18.6747 z M 4498.8764,3199.3488 c 2.7721,-1.1093 6.0841,-0.9729 7.3601,0.3029 1.2761,1.276 -0.9922,2.1836 -5.04,2.0169 -4.4736,-0.1843 -5.3833,-1.0942 -2.3201,-2.32 z M 132.53111,2937.2538 c -29.5325,-88.3833 -53.442105,-205.2708 -66.815305,-326.6419 -9.4642,-85.8946 -9.4938,-273.8322 -0.058,-366.72 22.7453,-223.9018 90.806305,-425.4338 206.138705,-610.3866 96.2466,-154.3458 229.6704,-293.7122 373.7132,-390.358 24.9884,-16.7661 54.3644,-34.9867 65.28,-40.4903 18.8882,-9.5234 16.8799,-6.9683 -41.5936,52.9167 -131.5741,134.7505 -236.5625,277.0839 -319.898,433.6874 -49.4411,92.9093 -102.3608,220.4836 -125.1834,301.7816 -5.4274,19.3329 -11.4202,39.2337 -13.3175,44.2239 -16.0386,42.1848 -52.1169,250.6747 -61.6848,356.4653 -15.6699,173.2603 -16.4839,426.685 -1.8162,565.44 1.2837,12.144 1.6441,22.08 0.801,22.08 -0.8432,0 -7.8481,-18.8991 -15.5664,-41.9981 z M 1536.9425,2562.9283 c -9.9442,-106.1201 39.0651,-228.3239 135.8639,-338.7738 60.2246,-68.7178 135.0604,-124.6909 225.19,-168.4299 175.3744,-85.1074 357.0082,-107.0601 675.84,-81.684 70.9962,5.6507 324.3284,5.925 341.6663,0.3698 11.076,-3.5488 11.5733,-4.7594 16.2277,-39.5059 9.1708,-68.4649 39.8005,-111.4855 101.3561,-142.3587 48.3875,-24.2686 104.366,-71.9491 119.7166,-101.9703 7.9042,-15.4581 11.5375,-34.4012 8.4587,-44.1017 -6.8707,-21.6477 -70.2637,-33.6831 -193.8254,-36.7985 -86.3174,-2.1764 -90.6573,-2.648 -99.84,-10.851 -26.217,-23.42 -98.4505,-65.0437 -184.4928,-106.3118 -102.9792,-49.3915 -209.0733,-111.5911 -253.0296,-148.3434 -14.9266,-12.4803 -14.9641,-12.1977 7.8747,-59.3248 21.3643,-44.0843 24.0964,-96.5323 6.8978,-132.4175 -19.369,-40.4141 -75.0278,-80.947 -194.0698,-141.3291 -82.0716,-41.62955 -140.8449,-65.75665 -361.4203,-148.36715 -11.9676,-4.4821 -20.16,-9.8841 -20.16,-13.2933 0,-3.6728 2.4222,-5.0205 6.72,-3.7387 3.696,1.1022 28.32,7.3762 54.72,13.9421 129.5732,32.226 247.6052,69.0987 342.7641,107.0781 55.6193,22.1984 134.5775,60.86855 160.2759,78.49565 44.4252,30.4723 74.9208,69.4801 88.3767,113.0451 11.9004,38.5289 9.2289,108.6343 -5.4552,143.1569 -1.9587,4.6048 7.0995,11.4471 38.8623,29.3551 40.2553,22.6962 71.4549,37.6127 191.1762,91.4014 60.2589,27.0733 87.174,40.9378 138.24,71.2103 l 30.72,18.2111 97.92,1.9549 c 107.1353,2.1388 133.62,5.9877 175.4097,25.4914 63.5466,29.6578 89.0014,85.035 72.6948,158.148 -8.4608,37.9354 -23.6665,63.1244 -62.2963,103.1967 -39.1291,40.5902 -66.9436,61.6384 -111.6196,84.4666 -41.2381,21.0716 -48.9919,32.2209 -52.2357,75.1106 -4.8914,64.6754 -40.9764,104.2541 -106.7138,117.0457 -11.4615,2.2302 -66.6311,4.164 -122.5991,4.2973 -87.3135,0.2077 -123.8386,-1.7416 -257.28,-13.7318 -85.536,-7.6858 -188.352,-15.0315 -228.48,-16.3237 -173.5025,-5.5874 -314.124,22.5483 -446.8212,89.4003 -71.1248,35.8322 -117.7154,69.0299 -171.8384,122.4416 -52.9283,52.2328 -84.3259,94.5077 -111.0794,149.5612 -24.1254,49.6456 -36.1952,93.7812 -39.1717,143.2388 -1.5044,24.9972 -3.5799,35.52 -7.0058,35.52 -3.2536,0 -5.7536,-9.4475 -7.5374,-28.4836 z M 2209.0364,1344.661 c -42.3633,-9.3774 -66.354,-27.2704 -83.6454,-62.3854 -11.8839,-24.1338 -12.3546,-26.8896 -12.3546,-72.3357 v -47.2461 l -19.2,-5.7548 c -25.4396,-7.625 -79.8388,-17.047 -98.423,-17.047 -8.1714,0 -14.857,-1.4534 -14.857,-3.2297 0,-5.4048 34.7876,-22.4271 65.28,-31.9428 24.8317,-7.7492 36.7366,-8.985 86.4,-8.9689 48.4979,0.015 62.4545,1.4086 88.32,8.8147 61.6456,17.6509 137.5615,61.9492 155.2706,90.6032 4.6644,7.5472 9.4458,23.1593 10.6418,34.7479 1.8265,17.6971 0.5559,24.3462 -7.991,41.8154 -6.2887,12.8537 -15.6367,24.5436 -24.5221,30.6658 -43.1067,29.701 -111.5277,49.6549 -144.9193,42.2634 z m 29.0481,-97.7219 c 10.4236,-4.4841 18.9519,-9.543 18.9519,-11.242 0,-6.9495 -108.8902,-64.995 -113.4232,-60.4619 -3.5195,3.5195 23.2531,50.7653 36.9886,65.2741 16.4102,17.3341 28.8901,18.73 57.4827,6.4298 z M 588.69591,1182.132 c 20.7126,-29.2898 93.605,-101.3412 129.7499,-128.2531 107.5743,-80.09485 233.579,-139.35795 394.27059,-185.43505 l 24.96,-7.1571 2.4988,-53.6574 c 5.1479,-110.5411 28.1486,-198.858 77.9784,-299.41734 55.4483,-111.89764 112.367,-189.7741 209.1347,-286.13919 86.8417,-86.48034 210.0188,-182.233738 247.3602,-192.288728 29.0589,-7.82475 63.6749,5.68118 81.8758,31.94506 16.2557,23.45707 16.2102,45.713238 -0.2085,102.076128 -53.5486,183.82174 -46.5959,401.82705 20.6116,646.28027 8.3539,30.3855 19.5719,68.0771 24.929,83.759 12.0073,35.1493 11.9884,36.8697 -0.1932,17.5674 -53.7208,-85.1245 -114.8372,-247.8797 -137.4663,-366.0779 -17.239,-90.044 -19.646,-115.04655 -19.4699,-202.24204 0.1559,-77.16422 6.4834,-149.20135 15.8284,-180.20159 1.8636,-6.18221 -0.351,-5.50265 -13.4424,4.12492 -35.2314,25.90942 -109.0841,91.67576 -146.8847,130.80179 -170.5449,176.52473 -259.274,354.53895 -270.43,542.55482 -2.7269,45.9591 -7.9286,64.6806 -22.2252,79.9925 -13.2711,14.2135 -26.1625,19.2726 -70.6685,27.7333 -224.05149,42.5924 -409.45259,123.44185 -540.38599,235.65085 l -22.7579,19.5034 z M 2032.6876,813.49195 c -8.8327,-28.8921 -11.9072,-94.2553 -6.3793,-135.6265 9.7607,-73.05076 38.2008,-155.83904 79.2792,-230.77952 11.4822,-20.94736 20.159,-38.80378 19.2818,-39.68099 -2.7673,-2.76729 -83.3207,40.09098 -119.3529,63.50151 -71.2193,46.27199 -157.8193,124.35474 -210.1722,189.50138 -13.1429,16.35472 -24.3881,29.24392 -24.9892,28.64272 -3.1864,-3.1864 20.8799,-73.79018 35.3985,-103.84908 51.6764,-106.98985 138.1256,-196.49249 253.3291,-262.27672 46.0883,-26.31764 114.3519,-54.72502 131.4244,-54.69132 30.4952,0.0602 62.8972,20.63608 76.009,48.26716 7.104,14.97067 8.5004,48.01593 2.6759,63.32605 -2.062,5.42004 -20.0564,32.20404 -39.9876,59.52 -103.5542,141.9224 -161.8247,256.97311 -183.2166,361.74721 l -6.8434,33.5181 z"
       id="path362" />
  </g>
</svg>
